# xmcd
#
# Track frame offsets:
#       150
#       24967
#       43527
#       82602
#       104415
#       127462
#       147725
#       173990
#       197265
#       218640
#
# Disc length: 3184 seconds
#
# Revision: 0
# Processed by: cddbd v1.4PL0 Copyright (c) Steve Scherf et al.
# Submitted via: CD-DA_X-Tractor v0.23
#
DISCID=860c6e0a
DTITLE=Eddie Burks - This Old Road
DYEAR=1992
DGENRE=Chicago
TTITLE0=I'm A King Bee
TTITLE1=Hoochie Koochie Man
TTITLE2=I've Got My Mojo Workin
TTITLE3=Li'l Red Rooster
TTITLE4=Sloppy Drunk
TTITLE5=Rocks Is My Pillow
TTITLE6=Shake It For Me
TTITLE7=Rock Me Mama
TTITLE8=Stop Breakin' Down
TTITLE9=Sweet Home Chicago
EXTD=
EXTT0=
EXTT1=
EXTT2=
EXTT3=
EXTT4=
EXTT5=
EXTT6=
EXTT7=
EXTT8=
EXTT9=
PLAYORDER=
